<!--?xml version="1.0"?--><svg width="640" height="480" xmlns="http://www.w3.org/2000/svg" xmlns:xlink="http://www.w3.org/1999/xlink">
 <title>Red Car - Top View</title>
 <defs>
  <linearGradient id="linearGradient3759">
   <stop stop-color="#1a1a1a" offset="0" id="stop3761"></stop>
   <stop stop-color="#f30000" stop-opacity="0" offset="1" id="stop3763"></stop>
  </linearGradient>
  <linearGradient xlink:href="#linearGradient3759" id="linearGradient4149" y2="19.592937" x2="13.695145" y1="19.872129" x1="14.678357"></linearGradient>
  <linearGradient xlink:href="#linearGradient3759" id="linearGradient4153" y2="22.120347" x2="13.615251" y1="22.266809" x1="16.491694"></linearGradient>
  <linearGradient xlink:href="#linearGradient3759" id="linearGradient4155" y2="19.594922" x2="12.749702" y1="19.799639" x1="15.469636"></linearGradient>
  <linearGradient xlink:href="#linearGradient3759" id="linearGradient4185" y2="17.003155" x2="13.695145" y1="16.723962" x1="14.678357"></linearGradient>
  <linearGradient xlink:href="#linearGradient3759" id="linearGradient4187" y2="17.109569" x2="15.211872" y1="17.111929" x1="15.711045"></linearGradient>
  <linearGradient xlink:href="#linearGradient3759" id="linearGradient4189" y2="17.001172" x2="12.749702" y1="16.796455" x1="15.469636"></linearGradient>
  <linearGradient xlink:href="#linearGradient3759" id="linearGradient4191" y2="12.678005" x2="7.27572" y1="12.486938" x1="7.532872"></linearGradient>
  <linearGradient xlink:href="#linearGradient3759" id="linearGradient4193" y2="13.610568" x2="6.363285" y1="12.224447" x1="7.217497"></linearGradient>
  <linearGradient xlink:href="#linearGradient3759" id="linearGradient4195" y2="18.923824" x2="13.570121" y1="18.969658" x1="17.076677"></linearGradient>
  <linearGradient xlink:href="#linearGradient3759" id="linearGradient4197" y2="18.726499" x2="13.615251" y1="18.580038" x1="16.491694"></linearGradient>
  <linearGradient xlink:href="#linearGradient3759" id="linearGradient4199" y2="25.952873" x2="5.286707" y1="25.448389" x1="6.884073"></linearGradient>
  <linearGradient xlink:href="#linearGradient3759" id="linearGradient4201" y2="27.72477" x2="6.109362" y1="27.50684" x1="7.706729"></linearGradient>
  <linearGradient xlink:href="#linearGradient3759" id="linearGradient4203" y2="19.486515" x2="15.211872" y1="19.484156" x1="15.711045"></linearGradient>
  <linearGradient xlink:href="#linearGradient3759" id="linearGradient4205" y2="14.75762" x2="7.27572" y1="14.948688" x1="7.532872"></linearGradient>
  <linearGradient xlink:href="#linearGradient3759" id="linearGradient4207" y2="13.825057" x2="6.363285" y1="15.211179" x1="7.217497"></linearGradient>
  <linearGradient xlink:href="#linearGradient3759" id="linearGradient4209" y2="21.923027" x2="13.570121" y1="21.877193" x1="17.076677"></linearGradient>
  <linearGradient xlink:href="#linearGradient3759" id="linearGradient4211" y2="31.194479" x2="5.286707" y1="31.698963" x1="6.884073"></linearGradient>
  <linearGradient xlink:href="#linearGradient3759" id="linearGradient4213" y2="34.164553" x2="6.109362" y1="34.382484" x1="7.706729"></linearGradient>
 </defs>
 <g>
  <title>Layer 1</title>
  <g id="svg_1">
   <path style="position: relative;" fill="#000000" fill-opacity="0.996078" stroke="#191919" stroke-width="14" stroke-miterlimit="4" id="path3855" d="m367.687988,93.998299c-0.944,0.0056 -2.954987,0.190903 -4.048981,0.586899l-2.19101,0.939003l5.419006,22.497803l-78.136993,0.176994c-1.525024,0.003006 -3.059998,-0.008995 -4.597015,-0.019997c-3.074982,-0.021004 -6.175995,-0.065002 -9.292999,-0.137001c-4.565002,-0.105003 -9.182983,-0.258003 -13.811981,-0.449997c-0.247009,-0.010002 -0.495026,-0.028999 -0.743011,-0.039001c-9.348007,-0.395004 -18.786011,-0.933998 -28.19101,-1.526001c-12.724991,-0.803001 -25.366989,-1.695 -37.639999,-2.426003c-9.095001,-0.542 -17.987,-0.988998 -26.528,-1.251999c-5.86499,-0.181 -11.55899,-0.285995 -17.05899,-0.253998c-2.702011,0.014999 -5.363998,0.057999 -7.962997,0.137001c-2.598007,0.077995 -5.246002,0.222 -7.923004,0.410995c-1.337997,0.094002 -2.678009,0.194 -4.029999,0.313004c-4.050003,0.354996 -8.167007,0.826996 -12.266006,1.368996c-0.006996,0.000999 -0.013,-0.000999 -0.019997,0c-2.737,0.362 -5.458,0.767006 -8.177002,1.193001c-2.720001,0.427002 -5.43,0.875 -8.099998,1.349998c-2.662498,0.474007 -5.302299,0.980003 -7.883598,1.487007c-0.006302,0.000999 -0.013306,-0.001007 -0.0196,0c-1.293602,0.253998 -2.547806,0.503998 -3.814804,0.762993c-3.794701,0.777 -7.471001,1.575005 -10.955597,2.367004c-0.006302,0.001999 -0.013199,-0.000999 -0.019501,0c-2.326599,0.528999 -4.562103,1.048996 -6.710197,1.565002c-4.297005,1.031998 -8.210701,2.024994 -11.601204,2.914986c-5.085598,1.335014 -9.003899,2.459007 -11.327198,3.131004c-1.548599,0.448013 -2.3867,0.70401 -2.3867,0.70401l-8.568802,2.347c-0.564999,0.155991 -1.113201,0.43399 -1.643398,0.821991c-0.180099,0.132004 -0.352001,0.27301 -0.528202,0.431c-0.6884,0.613007 -1.3466,1.421005 -1.975899,2.406006c-0.002899,0.003998 0.002899,0.014999 0,0.018997c-0.313202,0.492004 -0.640099,1.027008 -0.938999,1.604996c-0.002701,0.005005 0.002598,0.014008 0,0.019012c-0.299,0.577988 -0.595501,1.19899 -0.880402,1.858994c-0.0023,0.005005 0.0023,0.014008 0,0.018997c-2.2957,5.327011 -4.1444,13.229004 -5.5951,22.675003c-0.000999,0.005997 0.0009,0.013 0,0.018997c-0.022499,0.147003 -0.0364,0.303009 -0.058699,0.449997c-0.315901,2.086014 -0.621101,4.256012 -0.8999,6.476013c-0.0191,0.151001 -0.039801,0.296997 -0.058701,0.449997c-0.313999,2.530991 -0.592699,5.134995 -0.8608,7.804993c-0.0007,0.007004 0.000601,0.014008 0,0.020004c-0.133699,1.332001 -0.2687,2.688995 -0.3913,4.050003c-0.000599,0.005997 0.000601,0.013 0,0.018997c-0.122601,1.360992 -0.2404,2.723007 -0.3522,4.108994c-0.0005,0.006012 0.000601,0.013 0,0.019012c-0.2239,2.778 -0.4245,5.599991 -0.6064,8.451996c-0.000401,0.005997 0.000399,0.013 0,0.018997c-0.546301,8.567001 -0.913801,17.397003 -1.115101,26.020004c-0.0002,0.005997 0.000101,0.013 0,0.018997c-0.1343,5.753006 -0.1957,11.401993 -0.1957,16.845001c0,0.606003 0.0172,1.229004 0.019501,1.839005c-0.0023,0.610001 -0.019501,1.232986 -0.019501,1.838989c0,5.442001 0.061399,11.091003 0.195601,16.843994c0.0002,0.007019 -0.000101,0.013 0,0.02002c0.201399,8.622986 0.568899,17.453003 1.115099,26.018982c0.000401,0.007019 -0.000399,0.013 0,0.02002c0.1819,2.850983 0.3825,5.673004 0.606501,8.450989c0.0005,0.006989 -0.0005,0.014008 0,0.019989c0.1117,1.38501 0.2295,2.747009 0.3521,4.108002c0.000599,0.007019 -0.0005,0.013 0,0.02002c0.1227,1.360992 0.257599,2.71698 0.3913,4.048981c0.000599,0.007019 -0.000601,0.014008 0,0.02002c0.268099,2.67099 0.546799,5.274994 0.8608,7.806c0.0189,0.151978 0.0396,0.298004 0.058699,0.449982c0.278801,2.218994 0.584002,4.390015 0.8999,6.475006c0.022301,0.14801 0.0362,0.304016 0.058701,0.450012c0.0009,0.006989 -0.0009,0.013977 0,0.019989c1.4508,9.445007 3.2995,17.347015 5.5952,22.674011c0.0023,0.005981 -0.002399,0.013977 0,0.019989c0.284901,0.660004 0.581299,1.279999 0.880299,1.858002c0.002602,0.005005 -0.002598,0.014984 0,0.019989c0.298901,0.576996 0.625801,1.113007 0.939003,1.604004c0.002899,0.003998 -0.0028,0.015015 0,0.019012c0.629398,0.984985 1.287598,1.794006 1.975899,2.406982c0.176201,0.157013 0.348099,0.298004 0.528301,0.430023c0.530098,0.388 1.0784,0.665985 1.643299,0.821991l8.568798,2.347992c0,0 0.8381,0.256012 2.3867,0.70401c2.323303,0.67099 6.2416,1.794983 11.327301,3.130005c3.390404,0.889984 7.3041,1.882996 11.601097,2.914978c2.148201,0.516022 4.383606,1.036011 6.710205,1.565002c0.006401,0.001007 0.013298,-0.000977 0.0196,0c3.484596,0.792023 7.160896,1.589996 10.955498,2.367004c1.267097,0.26001 2.521301,0.509003 3.814903,0.763c0.006294,0.002014 0.013199,-0.001007 0.019501,0c2.581299,0.507019 5.2211,1.013 7.883698,1.487c2.669998,0.475006 5.379997,0.924011 8.099998,1.350006c2.719002,0.425995 5.440002,0.830994 8.177002,1.192993c0.006996,0.001007 0.013,0 0.019997,0c4.098999,0.542999 8.216003,1.014008 12.266006,1.369995c1.35199,0.119019 2.692001,0.219025 4.029999,0.313019c2.677002,0.187988 5.324997,0.332001 7.923004,0.41098c2.598999,0.078003 5.260986,0.121002 7.962997,0.137024c5.5,0.030975 11.192993,-0.074005 17.05899,-0.255005c8.541,-0.263 17.432999,-0.710022 26.528,-1.252014c12.27301,-0.730988 24.915009,-1.622986 37.639999,-2.425995c9.404999,-0.59201 18.843002,-1.131012 28.19101,-1.526001c0.247986,-0.01001 0.496002,-0.027985 0.743011,-0.039001c4.628998,-0.19101 9.246979,-0.345001 13.811981,-0.449982c3.117004,-0.071014 6.218018,-0.115021 9.292999,-0.137024c1.537018,-0.009979 3.071991,-0.02298 4.597015,-0.018982l78.136993,0.175995l-5.419006,22.497986l2.19101,0.939026c1.093994,0.395996 3.10498,0.580994 4.048981,0.586975c0.532013,0.003021 1.098999,-0.04599 1.683014,-0.155975c0.194,-0.037018 0.389984,-0.08902 0.587006,-0.137024c0.190002,-0.048004 0.395996,-0.097992 0.587006,-0.156982c0.392975,-0.121002 0.790985,-0.264008 1.172974,-0.430023c1.141022,-0.496979 2.213013,-1.208984 2.994019,-2.073975c0.005981,-0.007019 0.013,-0.013 0.018982,-0.02002c0.391022,-0.436005 0.696014,-0.90799 0.920013,-1.427979l7.609985,-19.603027l68.824005,0.157013c0.468018,0.234009 0.924011,0.466003 1.389008,0.684998c1.86499,0.876007 3.700989,1.626007 5.536011,2.269012c0.915985,0.320984 1.826996,0.610992 2.738983,0.880005c3.192993,0.944 6.378021,1.597992 9.606018,2.034973c1.843994,0.25 3.709991,0.434021 5.595001,0.567017c0.942993,0.066986 1.899994,0.113007 2.855988,0.156982c1.914001,0.088013 3.842987,0.133026 5.829987,0.156006c3.973999,0.046997 8.126007,0 12.521027,0c6.516998,0 12.721985,-0.332001 18.644012,-0.977997c2.368958,-0.257996 4.690002,-0.561981 6.964966,-0.919006c4.549011,-0.714996 8.906982,-1.639984 13.087036,-2.738983c1.045959,-0.274994 2.088989,-0.563019 3.110962,-0.860992c3.067017,-0.894012 6.018005,-1.894012 8.882019,-2.993011c0.953979,-0.367004 1.903992,-0.72699 2.836975,-1.11499c1.864014,-0.778015 3.682007,-1.601013 5.458008,-2.464996c0.888,-0.432007 1.775024,-0.877014 2.640991,-1.331024c1.731995,-0.906982 3.421997,-1.86499 5.067017,-2.855988c0.822021,-0.494995 1.625,-1.01001 2.426025,-1.526001c4.002991,-2.57901 7.738953,-5.399994 11.208984,-8.471008c2.77301,-2.453979 5.38501,-5.057983 7.825989,-7.806c0.002991,-0.003998 -0.002991,-0.015991 0,-0.018982c0.606995,-0.684998 1.211975,-1.372009 1.799988,-2.074005c0.002991,-0.003998 -0.002991,-0.015991 0,-0.02002c0.587036,-0.700989 1.174011,-1.412994 1.741028,-2.131989c0.002991,-0.003998 -0.002991,-0.015991 0,-0.019989c1.705994,-2.165009 3.325989,-4.394012 4.85199,-6.710022c0.002991,-0.003998 -0.004028,-0.014984 0,-0.019989c0.505981,-0.769012 1.018982,-1.541992 1.505981,-2.328003c0.002991,-0.005005 -0.002991,-0.014008 0,-0.018982c1.465027,-2.365021 2.859009,-4.791016 4.147034,-7.297028c0.002991,-0.004974 -0.002014,-0.014984 0,-0.019989c0.427979,-0.832001 0.843994,-1.675995 1.252991,-2.523987c0.002014,-0.005005 -0.002991,-0.014008 0,-0.019012c0.40802,-0.846985 0.822998,-1.700989 1.211975,-2.562988c0.002991,-0.006012 -0.002014,-0.014008 0,-0.019012c0.781006,-1.730011 1.527039,-3.475983 2.231018,-5.263c0.002014,-0.005981 -0.002991,-0.014008 0,-0.019989c0.349976,-0.890015 0.684998,-1.795013 1.016968,-2.699005c0.002014,-0.006012 -0.001953,-0.014008 0,-0.019989c0.332031,-0.904999 0.665039,-1.820007 0.978027,-2.739014c0.312988,-0.917999 0.625,-1.846008 0.919983,-2.777985c0.002014,-0.006012 -0.001953,-0.014008 0,-0.019012c0.294006,-0.932007 0.585022,-1.873016 0.861023,-2.817993c0.000977,-0.006012 -0.002014,-0.013 0,-0.019012c0.275024,-0.945007 0.544006,-1.898987 0.802002,-2.855988c0.000977,-0.007019 -0.002014,-0.014008 0,-0.02002c0.775024,-2.885986 1.481995,-5.825989 2.093018,-8.822998l0,-0.019989c0.201965,-0.994995 0.382996,-2.006012 0.566956,-3.011993l0,-0.02002c1.299011,-7.085999 2.16803,-14.437988 2.602051,-22.047989c0.000977,-0.007004 0,-0.013 0,-0.020004c0.061951,-1.082001 0.112,-2.175995 0.156982,-3.266998c0,-0.005997 -0.001038,-0.013 0,-0.018997c0.088989,-2.190002 0.153992,-4.386993 0.175964,-6.613007c0,-0.005997 0,-0.013 0,-0.018997c0.01001,-1.117004 0.006042,-2.23999 0,-3.36499c0,-0.39801 -0.013977,-0.796005 -0.019958,-1.194c0.006958,-0.397003 0.019958,-0.795013 0.019958,-1.193008c0.006042,-1.125 0.01001,-2.248993 0,-3.365005c0,-0.006989 0,-0.012985 0,-0.019989c-0.021973,-2.225006 -0.086975,-4.423004 -0.175964,-6.612c-0.001038,-0.007004 0,-0.013 0,-0.020004c-0.044983,-1.091003 -0.095032,-2.184998 -0.156982,-3.266998c0,-0.005997 0.000977,-0.013 0,-0.018997c-0.434021,-7.611008 -1.30304,-14.962997 -2.602051,-22.049011l0,-0.018997c-0.18396,-1.006989 -0.36499,-2.01799 -0.566956,-3.013l0,-0.018997c-0.611023,-2.998001 -1.317993,-5.938004 -2.093018,-8.824005c-0.002014,-0.005997 0.000977,-0.013 0,-0.018997c-0.257996,-0.957993 -0.526978,-1.910995 -0.802002,-2.856003c-0.002014,-0.006989 0.000977,-0.013992 0,-0.019989c-0.276001,-0.945007 -0.567017,-1.88501 -0.861023,-2.817001c-0.001953,-0.005997 0.002014,-0.014008 0,-0.020004c-0.294983,-0.931992 -0.606995,-1.858994 -0.919983,-2.778c-0.312988,-0.917999 -0.645996,-1.834 -0.978027,-2.738998c-0.001953,-0.005005 0.002014,-0.014008 0,-0.018997c-0.33197,-0.904999 -0.666992,-1.809006 -1.016968,-2.699997c-0.002991,-0.006012 0.002014,-0.014008 0,-0.019989c-0.703979,-1.787018 -1.450012,-3.53302 -2.231018,-5.262024c-0.002014,-0.00499 0.002991,-0.013992 0,-0.019989c-0.388977,-0.862 -0.803955,-1.715012 -1.211975,-2.562012c-0.002991,-0.005997 0.002014,-0.014999 0,-0.019989c-0.408997,-0.847 -0.825012,-1.691986 -1.252991,-2.524002c-0.002014,-0.005005 0.002991,-0.014008 0,-0.018997c-1.288025,-2.507004 -2.682007,-4.932007 -4.147034,-7.298004c-0.002991,-0.003983 0.002991,-0.014008 0,-0.018997c-0.487,-0.785004 -1,-1.559006 -1.505981,-2.328003c-0.004028,-0.005005 0.002991,-0.014999 0,-0.020004c-1.526001,-2.315979 -3.145996,-4.544998 -4.85199,-6.709991c-0.002991,-0.003998 0.002991,-0.016006 0,-0.018997c-0.567017,-0.719009 -1.153992,-1.431 -1.741028,-2.133011c-0.002991,-0.003998 0.002991,-0.015991 0,-0.018997c-0.588013,-0.701996 -1.192993,-1.389999 -1.799988,-2.074005c-0.002991,-0.003998 0.002991,-0.015991 0,-0.019989c-2.440979,-2.747009 -5.052979,-5.352005 -7.825989,-7.806c-3.470032,-3.070999 -7.205994,-5.891006 -11.208984,-8.471008c-0.801025,-0.515991 -1.604004,-1.029999 -2.426025,-1.525986c-1.64502,-0.990013 -3.335022,-1.949013 -5.067017,-2.85601c-0.865967,-0.453003 -1.752991,-0.898003 -2.640991,-1.330002c-1.776001,-0.86499 -3.593994,-1.687988 -5.458008,-2.464989c-0.932983,-0.389 -1.882996,-0.749001 -2.836975,-1.115013c-2.864014,-1.099998 -5.815002,-2.098999 -8.882019,-2.993988c-1.021973,-0.298012 -2.065002,-0.585999 -3.110962,-0.860008c-4.180054,-1.099991 -8.538025,-2.024002 -13.087036,-2.738991c-2.274963,-0.358002 -4.596008,-0.66201 -6.964966,-0.920013c-5.921021,-0.645988 -12.127014,-0.978989 -18.644012,-0.978989c-4.39502,0 -8.547028,-0.045998 -12.521027,0c-1.985992,0.023003 -3.915985,0.069 -5.828979,0.15699c-0.957001,0.042999 -1.914001,0.090012 -2.856995,0.156013c-1.88501,0.132996 -3.75,0.317986 -5.595001,0.567986c-3.22702,0.437012 -6.413025,1.090012 -9.606018,2.034012c-0.911987,0.269989 -1.822998,0.55999 -2.738007,0.87999c-1.835999,0.644012 -3.671997,1.394012 -5.536987,2.270012c-0.464996,0.217987 -0.92099,0.450989 -1.389008,0.684998l-68.824005,0.155991l-7.609985,-19.602699c-0.222992,-0.5196 -0.528992,-0.991188 -0.920013,-1.428101c-0.005981,-0.006599 -0.013,-0.012901 -0.018982,-0.0196c-0.781006,-0.864601 -1.852997,-1.576889 -2.993011,-2.0737c-0.382996,-0.166489 -0.781006,-0.309502 -1.173981,-0.430389c-0.19101,-0.058411 -0.397003,-0.1092 -0.587006,-0.156509c-0.197021,-0.048691 -0.393005,-0.100288 -0.587006,-0.137001c-0.584015,-0.1101 -1.151001,-0.159599 -1.683014,-0.156502l0,-0.000198l0,0l0,0l0,0l0,0z"></path>
   <path style="position: relative;" fill="#bfbfbf" id="path2853" d="m372.688385,90.998283c-0.944427,0.005623 -2.955566,0.191635 -4.049622,0.586906l-2.191101,0.939056l5.419067,22.439537l-78.136444,0.176064c-48.807678,0.103561 -104.249313,-7.201714 -145.825943,-5.94735c-41.576645,1.254372 -95.234882,17.529045 -95.234882,17.529045l-8.56879,2.367203c-12.05196,3.315659 -16.100719,60.955414 -16.100719,104.41127c0,0.696793 0.01668,1.410522 0.019569,2.112869c-0.00289,0.702347 -0.019569,1.416077 -0.019569,2.112869c0,43.455887 4.048759,101.095596 16.100719,104.41127l8.56879,2.367218c0,0 53.658237,16.274658 95.234882,17.529022c41.57663,1.254364 97.018265,-6.050903 145.825943,-5.947357l78.136444,0.176086l-5.419067,22.439514l2.191101,0.939056c1.094055,0.395294 3.105164,0.581299 4.049622,0.586914c0.53125,0.003143 1.098755,-0.04657 1.682495,-0.156525c0.194519,-0.03656 0.39035,-0.088379 0.586914,-0.136932c0.190643,-0.04718 0.395996,-0.098206 0.586884,-0.156525c0.393433,-0.120605 0.791016,-0.264221 1.173828,-0.430389c1.14035,-0.495819 2.212585,-1.191193 2.993195,-2.054169c0.006287,-0.006714 0.013611,-0.013031 0.019531,-0.019531c0.391174,-0.436096 0.69635,-0.909515 0.919495,-1.428162l7.610199,-19.56366l68.824188,0.156525c14.962524,7.476379 28.49173,6.710327 46.07193,6.710327c83.418762,0 117.460999,-54.206238 117.067749,-126.068237c0,-0.488449 -0.011841,-0.980133 -0.019409,-1.46727c0.007568,-0.487152 0.019409,-0.978836 0.019409,-1.467285c0.39325,-71.861984 -33.648987,-126.068237 -117.067688,-126.068237c-17.580231,0 -31.109467,-0.766037 -46.07196,6.710342l-68.824219,0.156509l-7.610199,-19.563667c-0.223145,-0.518623 -0.52832,-0.99205 -0.919495,-1.428154c-0.006256,-0.006508 -0.013336,-0.012886 -0.019531,-0.019516c-0.780609,-0.862984 -1.852844,-1.55835 -2.993195,-2.054184c-0.382782,-0.166176 -0.780365,-0.309769 -1.173828,-0.430405c-0.190857,-0.058304 -0.396179,-0.109314 -0.586884,-0.156525c-0.196564,-0.048569 -0.392395,-0.100357 -0.586914,-0.13694c-0.58371,-0.109917 -1.151215,-0.15963 -1.682495,-0.156509l0,-0.000099l0,0.000023z"></path>
   <path style="position: relative;" opacity="0.9" fill="#262626" fill-opacity="0.996078" id="path3643" d="m236.104858,320.337769c-20.887161,0 -40.884567,1.126892 -59.355499,3.169342c16.06424,30.496582 61.342285,18.947205 128.688385,19.739716c31.105499,0.366058 56.057343,1.176514 76.082245,1.486847c-29.523712,-14.608063 -83.592651,-24.395905 -145.415131,-24.395905z"></path>
   <path style="position: relative;" opacity="0.5" fill="#000000" fill-opacity="0.996078" id="path3658" d="m236.104858,320.337769c-2.007355,0 -3.996033,0.018494 -5.98642,0.039154c0.512253,10.123657 4.0242,18.941711 9.136139,24.317627c2.9245,-0.047333 5.944275,-0.123047 9.03833,-0.21521c-5.362488,-5.128693 -9.135559,-13.915558 -9.840424,-24.141571c-0.783356,-0.003113 -1.561768,0 -2.347626,0z"></path>
   <path style="position: relative;" fill="#212121" fill-rule="nonzero" stroke="#191919" stroke-width="5" stroke-miterlimit="4" id="path3707" d="m604.641113,302.973755l-3.188843,0.371704c-13.487793,1.573029 -23.594177,16.26355 -24.591187,34.13858l-0.234802,4.46051l3.286621,-3.032349c9.947205,-9.190521 17.718872,-20.350861 23.41748,-33.023468l1.31073,-2.914978z"></path>
   <path style="position: relative;" opacity="0.5" fill="none" stroke="#292929" stroke-width="6" stroke-linecap="round" stroke-linejoin="round" stroke-miterlimit="4" id="path3715" d="m475.961304,309.858948c0,0 49.88092,-14.14621 65.969482,-20.02179c16.802429,-6.136292 61.889282,-24.506622 61.889282,-24.506622c0,0 -5.472168,26.587616 -19.083435,36.25885c-48.344543,34.350494 -145.669922,33.714417 -145.669922,33.714417"></path>
   <path style="position: relative;" fill="url(#linearGradient4149)" id="path3757" d="m530.110352,296.924896l-2.778015,1.467285c0.619263,0.724213 1.124084,1.520416 1.486877,2.406342c3.003662,7.335266 -6.721069,18.302795 -16.824585,22.400391c-0.323486,0.131195 -1.134888,0.526245 -2.132446,1.036865l8.529724,-2.425903c10.834045,-5.2948 17.19751,-14.450165 14.398743,-21.285278c-0.573547,-1.400635 -1.487,-2.608093 -2.680237,-3.599701l-0.000061,0z"></path>
   <path style="position: relative;" fill="url(#linearGradient4203)" id="path3787" d="m535.484375,294.132111l-2.778015,1.467285c0.619202,0.724213 1.124084,1.520416 1.486877,2.406342c3.003662,7.335266 -6.721069,18.302795 -16.824585,22.400391c-0.323547,0.131195 -1.134949,0.526245 -2.132446,1.036865l8.529663,-2.425903c10.834106,-5.2948 17.197571,-14.450165 14.398682,-21.285248c-0.573486,-1.400696 -1.486938,-2.608124 -2.680115,-3.599731l-0.000061,0z"></path>
   <path style="position: relative;" fill="url(#linearGradient4155)" id="path3752" d="m539.357727,293.246735l-2.778015,1.467285c0.619202,0.724213 1.124023,1.520416 1.486816,2.406342c3.003662,7.335266 -6.721069,18.302765 -16.824524,22.400391c-0.323547,0.131195 -1.134949,0.526245 -2.132446,1.036865l8.529724,-2.425903c10.834045,-5.2948 17.19751,-14.450165 14.398682,-21.285278c-0.573547,-1.400635 -1.487,-2.608093 -2.680176,-3.599701l-0.000061,0z"></path>
   <path style="position: relative;" fill="url(#linearGradient4205)" id="path3735" d="m549.941772,290.571533l-3.873596,1.154236c0.601135,1.072327 1.035767,2.211365 1.271667,3.423645c1.95282,10.037811 -13.122986,21.462799 -26.938843,24.102417c-2.125366,0.406067 -18.08252,5.368927 -20.13208,5.511932l0,2.582397l25.942383,-7.605194c16.455688,-3.440918 28.139648,-14.053284 26.215088,-23.945923c-0.372925,-1.916718 -1.224609,-3.668335 -2.484558,-5.223511l-0.000061,0z"></path>
   <path style="position: relative;" fill="url(#linearGradient4207)" id="path3783" d="m549.941772,290.571533l-3.873596,1.154236c0.601135,1.072327 1.035767,2.211365 1.271667,3.423645c1.95282,10.037811 -13.122986,21.462799 -26.938843,24.102417c-2.125366,0.406067 -18.08252,5.368927 -20.13208,5.511932l0,2.582397l25.942383,-7.605194c16.455688,-3.440918 28.139648,-14.053284 26.215088,-23.945923c-0.372925,-1.916718 -1.224609,-3.668335 -2.484558,-5.223511l-0.000061,0z"></path>
   <path style="position: relative;" fill="url(#linearGradient4209)" id="path3799" d="m522.067871,299.816833l-2.481628,1.31076c0.553162,0.646973 1.00415,1.358246 1.328186,2.149658c2.683289,6.552795 -6.004028,16.350281 -15.029663,20.010742c-0.289063,0.117218 -1.013916,0.470154 -1.904968,0.92627l7.619751,-2.167084c9.678284,-4.730011 15.362915,-12.908691 12.862671,-19.014618c-0.512329,-1.251251 -1.328308,-2.329926 -2.394226,-3.215729l-0.000122,0z"></path>
   <path style="position: relative;" fill="url(#linearGradient4153)" id="path3803" d="m513.424011,302.053864l-2.481628,1.310791c0.553101,0.646912 1.004089,1.358185 1.328186,2.149628c2.683289,6.552765 -6.004028,16.350281 -15.029785,20.010742c-0.28894,0.117249 -1.013855,0.470154 -1.904907,0.92627l7.619751,-2.167114c9.678284,-4.72998 15.362915,-12.90863 12.862671,-19.014557c-0.51239,-1.251251 -1.328308,-2.329926 -2.394226,-3.215698l-0.000061,-0.000061z"></path>
   <path style="position: relative;" fill="url(#linearGradient4211)" id="rect3861" d="m131.510132,314.382324c5.191727,-1.266693 9.694519,-0.925781 12.393936,3.622986l-1.560928,11.204041c-4.304077,3.864685 -8.60817,3.099426 -12.912247,0.097321l2.079224,-14.924347l0.000015,0z"></path>
   <path style="position: relative;" fill="url(#linearGradient4213)" id="path3864" d="m144.203781,316.425293c5.102341,-0.757629 9.494904,-0.358612 11.79631,3.448273l-1.485657,10.663788c-4.059158,1.862335 -8.127777,3.261414 -12.289612,0.09259l1.978973,-14.204651l-0.000015,0z"></path>
   <path style="position: relative;" opacity="0.9" fill="#191919" fill-rule="nonzero" stroke-width="5" id="path4025" d="m236.104858,318.781158c-20.94342,0 -41.000488,1.120239 -59.53157,3.169342l-2.288925,0.254303l1.075974,2.034637c4.176346,7.928406 10.368179,13.217773 18.194016,16.550873c7.825867,3.333069 17.261185,4.765747 28.230072,5.282166c21.937744,1.032837 50.054291,-1.647247 83.633759,-1.252075c31.088165,0.365845 56.035248,1.176147 76.082245,1.486847l0.704285,-2.973663c-29.955414,-14.821686 -84.112213,-24.552429 -146.099854,-24.552429zm0,3.130219c57.07547,0 107.520203,8.43811 137.78537,21.109192c-18.751068,-0.364624 -40.825073,-1.005432 -68.432922,-1.330353c-33.766632,-0.397339 -61.962555,2.286407 -83.516373,1.271637c-10.776932,-0.507385 -19.887222,-1.944092 -27.173645,-5.047424c-6.544083,-2.78714 -11.572479,-6.983032 -15.337753,-13.088074c17.721512,-1.867493 36.770111,-2.914978 56.675323,-2.914978z"></path>
   <path style="position: relative;" opacity="0.9" fill="#262626" fill-opacity="0.996078" stroke="#191919" stroke-width="5" stroke-miterlimit="4" id="rect2864" d="m148.558182,165.170898l-48.673874,7.805908c-16.997169,2.72583 -30.642738,30.533554 -31.927559,65.636078c1.284821,35.102509 14.930389,62.910248 31.927559,65.636108l48.673874,7.805878c8.323685,0 15.024719,-6.70108 15.024719,-15.024872l0,-116.834198c0,-8.323822 -6.701035,-15.024902 -15.024734,-15.024902l0.000015,0z"></path>
   <path style="position: relative;" opacity="0.9" fill="#262626" fill-opacity="0.996078" stroke="#191919" stroke-width="5" stroke-miterlimit="4" stroke-dashoffset="0" id="path3703" d="m418.670715,143.748688c-1.858795,0 -3.689392,0.207947 -5.497345,0.606476c-0.0065,-0.006271 -0.013031,-0.013153 -0.019531,-0.019516l-39.96814,7.708069c-11.098236,4.134781 -20.032959,8.934799 -20.032959,20.033203l0,133.072006c0,11.098419 8.934723,15.898438 20.032959,20.033203l39.96814,7.708069c0.006592,-0.006348 0.013031,-0.013214 0.019531,-0.019531c1.807922,0.39856 3.638489,0.606506 5.497345,0.606506c28.41925,0 51.45871,-35.911133 51.530121,-94.864212c-0.071411,-58.953079 -23.11087,-94.864197 -51.530121,-94.864197l0,-0.000076z"></path>
   <path style="position: relative;" opacity="0.9" fill="#262626" fill-opacity="0.996078" id="path4157" d="m236.104858,156.887863c-20.887161,0 -40.884567,-1.126862 -59.355499,-3.169312c16.06424,-30.496574 61.342285,-18.94722 128.688385,-19.739731c31.105499,-0.366058 56.057343,-1.176498 76.082245,-1.486847c-29.523712,14.608063 -83.592651,24.395889 -145.415131,24.395889z"></path>
   <path style="position: relative;" opacity="0.5" fill="#000000" fill-opacity="0.996078" id="path4159" d="m236.104858,156.887863c-2.007355,0 -3.996033,-0.018448 -5.98642,-0.039124c0.512253,-10.123672 4.0242,-18.941711 9.136139,-24.317627c2.9245,0.047333 5.944275,0.123032 9.03833,0.215195c-5.362488,5.128693 -9.135559,13.915573 -9.840424,24.141556c-0.783356,0.003128 -1.561768,0 -2.347626,0z"></path>
   <path style="position: relative;" fill="#212121" fill-rule="nonzero" stroke="#191919" stroke-width="5" stroke-miterlimit="4" id="path4161" d="m604.641113,174.251907l-3.188843,-0.371704c-13.487793,-1.573044 -23.594177,-16.26355 -24.591187,-34.138596l-0.234802,-4.46051l3.286621,3.032364c9.947205,9.190506 17.718872,20.350845 23.41748,33.023468l1.31073,2.914978z"></path>
   <path style="position: relative;" opacity="0.5" fill="none" stroke="#292929" stroke-width="6" stroke-linecap="round" stroke-linejoin="round" stroke-miterlimit="4" id="path4163" d="m475.961304,167.366699c0,0 49.88092,14.146194 65.969482,20.02179c16.802429,6.136307 61.889282,24.506622 61.889282,24.506622c0,0 -5.472168,-26.587585 -19.083435,-36.258881c-48.344543,-34.350464 -145.669922,-33.71434 -145.669922,-33.71434"></path>
   <path style="position: relative;" fill="url(#linearGradient4185)" id="path4165" d="m530.110352,180.300751l-2.778015,-1.46727c0.619263,-0.724197 1.124084,-1.520432 1.486877,-2.406342c3.003662,-7.335297 -6.721069,-18.30278 -16.824585,-22.400375c-0.323486,-0.131226 -1.134888,-0.526276 -2.132446,-1.03688l8.529724,2.425888c10.834045,5.2948 17.19751,14.450165 14.398743,21.285278c-0.573547,1.400665 -1.487,2.608109 -2.680237,3.599701l-0.000061,0z"></path>
   <path style="position: relative;" fill="url(#linearGradient4187)" id="path4167" d="m535.484375,183.093582l-2.778015,-1.467285c0.619202,-0.724197 1.124084,-1.520416 1.486877,-2.406311c3.003662,-7.335312 -6.721069,-18.302811 -16.824585,-22.400406c-0.323547,-0.13121 -1.134949,-0.526276 -2.132446,-1.03688l8.529663,2.425903c10.834106,5.2948 17.197571,14.45018 14.398682,21.285263c-0.573486,1.400665 -1.486938,2.608124 -2.680115,3.599716l-0.000061,0z"></path>
   <path style="position: relative;" fill="url(#linearGradient4189)" id="path4169" d="m539.357727,183.978912l-2.778015,-1.46727c0.619202,-0.724197 1.124023,-1.520432 1.486816,-2.406326c3.003662,-7.335312 -6.721069,-18.302811 -16.824524,-22.400406c-0.323547,-0.13121 -1.134949,-0.526276 -2.132446,-1.036865l8.529724,2.425888c10.834045,5.2948 17.19751,14.450165 14.398682,21.285263c-0.573547,1.400681 -1.487,2.608124 -2.680176,3.599716l-0.000061,0z"></path>
   <path style="position: relative;" fill="url(#linearGradient4191)" id="path4171" d="m549.941772,186.654175l-3.873596,-1.154266c0.601135,-1.072281 1.035767,-2.211349 1.271667,-3.42363c1.95282,-10.037811 -13.122986,-21.462799 -26.938843,-24.102432c-2.125366,-0.406067 -18.08252,-5.368896 -20.13208,-5.511917l0,-2.582397l25.942383,7.605209c16.455688,3.440887 28.139648,14.053299 26.215088,23.945938c-0.372925,1.916702 -1.224609,3.668289 -2.484558,5.223495l-0.000061,0z"></path>
   <path style="position: relative;" fill="url(#linearGradient4193)" id="path4173" d="m549.941772,186.654175l-3.873596,-1.154266c0.601135,-1.072281 1.035767,-2.211349 1.271667,-3.42363c1.95282,-10.037811 -13.122986,-21.462799 -26.938843,-24.102432c-2.125366,-0.406067 -18.08252,-5.368896 -20.13208,-5.511917l0,-2.582397l25.942383,7.605209c16.455688,3.440887 28.139648,14.053299 26.215088,23.945938c-0.372925,1.916702 -1.224609,3.668289 -2.484558,5.223495l-0.000061,0z"></path>
   <path style="position: relative;" fill="url(#linearGradient4195)" id="path4175" d="m522.067871,177.408813l-2.481628,-1.31076c0.553162,-0.646942 1.00415,-1.358231 1.328186,-2.149643c2.683289,-6.552795 -6.004028,-16.350281 -15.029663,-20.010757c-0.289063,-0.117233 -1.013916,-0.470139 -1.904968,-0.926254l7.619751,2.167099c9.678284,4.729965 15.362915,12.908646 12.862671,19.014618c-0.512329,1.251221 -1.328308,2.329895 -2.394226,3.215698l-0.000122,0z"></path>
   <path style="position: relative;" fill="url(#linearGradient4197)" id="path4177" d="m513.424011,175.171783l-2.481628,-1.31076c0.553101,-0.646927 1.004089,-1.358231 1.328186,-2.149643c2.683289,-6.552795 -6.004028,-16.350281 -15.029785,-20.010757c-0.28894,-0.117218 -1.013855,-0.470123 -1.904907,-0.926254l7.619751,2.167099c9.678284,4.72998 15.362915,12.908661 12.862671,19.014587c-0.51239,1.251221 -1.328308,2.329895 -2.394226,3.215698l-0.000061,0.000031z"></path>
   <path style="position: relative;" fill="url(#linearGradient4199)" id="path4179" d="m131.510132,162.843323c5.191727,1.266708 9.694519,0.925797 12.393936,-3.622986l-1.560928,-11.20401c-4.304077,-3.864716 -8.60817,-3.099426 -12.912247,-0.097321l2.079224,14.924316l0.000015,0z"></path>
   <path style="position: relative;" fill="url(#linearGradient4201)" id="path4181" d="m144.203781,160.800415c5.102341,0.757629 9.494904,0.358597 11.79631,-3.448303l-1.485657,-10.663757c-4.059158,-1.862335 -8.127777,-3.261429 -12.289612,-0.092621l1.978973,14.204681l-0.000015,0z"></path>
   <path style="position: relative;" opacity="0.9" fill="#191919" fill-rule="nonzero" stroke-width="5" id="path4183" d="m236.104858,158.444473c-20.94342,0 -41.000488,-1.120209 -59.53157,-3.169312l-2.288925,-0.254318l1.075974,-2.034637c4.176346,-7.928391 10.368179,-13.217773 18.194016,-16.550858c7.825867,-3.333084 17.261185,-4.765762 28.230072,-5.282181c21.937744,-1.032822 50.054291,1.647247 83.633759,1.252075c31.088165,-0.365829 56.035248,-1.176147 76.082245,-1.486847l0.704285,2.973679c-29.955414,14.821655 -84.112213,24.552399 -146.099854,24.552399zm0,-3.130173c57.07547,0 107.520203,-8.438141 137.78537,-21.109192c-18.751068,0.364594 -40.825073,1.005417 -68.432922,1.330322c-33.766632,0.397339 -61.962555,-2.286392 -83.516373,-1.271637c-10.776932,0.507385 -19.887222,1.944092 -27.173645,5.047424c-6.544083,2.78717 -11.572479,6.983032 -15.337753,13.088089c17.721512,1.867493 36.770111,2.914993 56.675323,2.914993z"></path>
  </g>
 </g>
</svg>